# xmcd
#
# Track frame offsets: 
#        150
#        20515
#        37037
#        57037
#        80292
#        144825
#
# Disc length: 2124 seconds
#
# Revision: 3
# Processed by: cddbd v1.5.2PL0 Copyright (c) Steve Scherf et al.
# Submitted via: ExactAudioCopyFreeDBPlugin 1.0
#
DISCID=41084a06
DTITLE=Dickey Betts - Highway Call
DYEAR=1974
DGENRE=Bluegrass
TTITLE0=Long Time Gone
TTITLE1=Rain
TTITLE2=Highway Call
TTITLE3=Let Nature Sing
TTITLE4=Hank Picked
TTITLE5=Kissimmee Kid
EXTD=
EXTT0=
EXTT1=
EXTT2=
EXTT3=
EXTT4=
EXTT5=
PLAYORDER=
